<svg xmlns="http://www.w3.org/2000/svg" xmlns:xlink="http://www.w3.org/1999/xlink" width="500" zoomAndPan="magnify" viewBox="0 0 375 74.999997" height="100" preserveAspectRatio="xMidYMid meet" version="1.0"><defs><g/><clipPath id="69180a209b"><path d="M 38.265625 14.867188 L 107.351562 14.867188 L 107.351562 59.304688 L 38.265625 59.304688 Z M 38.265625 14.867188 " clip-rule="nonzero"/></clipPath><clipPath id="3dd6ea0dc5"><path d="M 51.765625 14.867188 L 93.757812 14.867188 C 101.210938 14.867188 107.257812 20.910156 107.257812 28.367188 L 107.257812 45.804688 C 107.257812 53.261719 101.210938 59.304688 93.757812 59.304688 L 51.765625 59.304688 C 44.308594 59.304688 38.265625 53.261719 38.265625 45.804688 L 38.265625 28.367188 C 38.265625 20.910156 44.308594 14.867188 51.765625 14.867188 Z M 51.765625 14.867188 " clip-rule="nonzero"/></clipPath><clipPath id="188537b542"><path d="M 59 17.855469 L 80 17.855469 L 80 30 L 59 30 Z M 59 17.855469 " clip-rule="nonzero"/></clipPath><clipPath id="e2cd7b83e6"><path d="M 53.527344 24 L 70 24 L 70 43 L 53.527344 43 Z M 53.527344 24 " clip-rule="nonzero"/></clipPath><clipPath id="173f68ac14"><path d="M 76 31 L 91.988281 31 L 91.988281 50 L 76 50 Z M 76 31 " clip-rule="nonzero"/></clipPath><clipPath id="79f54b9600"><path d="M 65 45 L 87 45 L 87 56.316406 L 65 56.316406 Z M 65 45 " clip-rule="nonzero"/></clipPath><clipPath id="e1d6862502"><path d="M 97.710938 18.90625 L 102.496094 18.90625 L 102.496094 23.691406 L 97.710938 23.691406 Z M 97.710938 18.90625 " clip-rule="nonzero"/></clipPath><clipPath id="c09d691841"><path d="M 100.101562 18.90625 C 98.78125 18.90625 97.710938 19.976562 97.710938 21.296875 C 97.710938 22.621094 98.78125 23.691406 100.101562 23.691406 C 101.421875 23.691406 102.496094 22.621094 102.496094 21.296875 C 102.496094 19.976562 101.421875 18.90625 100.101562 18.90625 Z M 100.101562 18.90625 " clip-rule="nonzero"/></clipPath></defs><g clip-path="url(#69180a209b)"><g clip-path="url(#3dd6ea0dc5)"><path fill="#ebcc1b" d="M 38.265625 14.867188 L 107.179688 14.867188 L 107.179688 59.304688 L 38.265625 59.304688 Z M 38.265625 14.867188 " fill-opacity="1" fill-rule="nonzero"/></g></g><g clip-path="url(#188537b542)"><path fill="#000000" d="M 79.335938 29.03125 L 76.3125 18.183594 C 70.289062 17.0625 63.828125 18.824219 59.167969 23.484375 C 59.144531 23.507812 59.121094 23.539062 59.089844 23.5625 Z M 79.335938 29.03125 " fill-opacity="1" fill-rule="nonzero"/></g><g clip-path="url(#e2cd7b83e6)"><path fill="#000000" d="M 69.1875 27.246094 L 58.375 24.324219 C 53.921875 29.339844 52.535156 36.105469 54.21875 42.214844 Z M 69.1875 27.246094 " fill-opacity="1" fill-rule="nonzero"/></g><path fill="#000000" d="M 90.988281 30.953125 C 90.074219 28.222656 88.527344 25.660156 86.359375 23.484375 C 83.773438 20.898438 80.636719 19.207031 77.328125 18.398438 L 83.042969 38.890625 Z M 90.988281 30.953125 " fill-opacity="1" fill-rule="nonzero"/><g clip-path="url(#173f68ac14)"><path fill="#000000" d="M 76.28125 46.960938 L 87.066406 49.929688 C 91.582031 44.914062 92.988281 38.09375 91.289062 31.953125 Z M 76.28125 46.960938 " fill-opacity="1" fill-rule="nonzero"/></g><g clip-path="url(#79f54b9600)"><path fill="#000000" d="M 65.980469 45.085938 L 68.8125 55.90625 C 74.941406 57.183594 81.582031 55.445312 86.34375 50.691406 Z M 65.980469 45.085938 " fill-opacity="1" fill-rule="nonzero"/></g><path fill="#000000" d="M 54.527344 43.214844 C 55.445312 45.945312 56.988281 48.507812 59.160156 50.683594 C 61.644531 53.167969 64.636719 54.828125 67.796875 55.667969 L 62.457031 35.285156 Z M 54.527344 43.214844 " fill-opacity="1" fill-rule="nonzero"/><g clip-path="url(#e1d6862502)"><g clip-path="url(#c09d691841)"><path fill="#ebcc1b" d="M 97.710938 18.90625 L 102.496094 18.90625 L 102.496094 23.691406 L 97.710938 23.691406 Z M 97.710938 18.90625 " fill-opacity="1" fill-rule="nonzero"/></g></g><g fill="#ffffff" fill-opacity="1"><g transform="translate(120.601274, 37.857985)"><g><path d="M 16.59375 -11.203125 L 15.71875 -11.203125 C 15.675781 -11.859375 15.578125 -12.40625 15.421875 -12.84375 C 15.265625 -13.289062 15.039062 -13.644531 14.75 -13.90625 C 14.46875 -14.175781 14.125 -14.363281 13.71875 -14.46875 C 13.3125 -14.570312 12.835938 -14.625 12.296875 -14.625 C 11.765625 -14.625 11.335938 -14.613281 11.015625 -14.59375 C 10.703125 -14.570312 10.457031 -14.535156 10.28125 -14.484375 C 10.113281 -14.441406 10.003906 -14.378906 9.953125 -14.296875 C 9.898438 -14.210938 9.875 -14.109375 9.875 -13.984375 L 9.875 -3.3125 C 9.875 -2.882812 9.90625 -2.515625 9.96875 -2.203125 C 10.03125 -1.890625 10.15625 -1.632812 10.34375 -1.4375 C 10.53125 -1.238281 10.804688 -1.085938 11.171875 -0.984375 C 11.546875 -0.878906 12.03125 -0.820312 12.625 -0.8125 L 12.625 0 L 4.09375 0 L 4.09375 -0.8125 C 4.707031 -0.820312 5.195312 -0.878906 5.5625 -0.984375 C 5.925781 -1.085938 6.207031 -1.238281 6.40625 -1.4375 C 6.601562 -1.632812 6.726562 -1.890625 6.78125 -2.203125 C 6.84375 -2.515625 6.875 -2.882812 6.875 -3.3125 L 6.875 -13.984375 C 6.875 -14.109375 6.847656 -14.210938 6.796875 -14.296875 C 6.753906 -14.378906 6.660156 -14.441406 6.515625 -14.484375 C 6.367188 -14.535156 6.15625 -14.570312 5.875 -14.59375 C 5.59375 -14.613281 5.226562 -14.625 4.78125 -14.625 C 4.289062 -14.625 3.820312 -14.597656 3.375 -14.546875 C 2.925781 -14.492188 2.53125 -14.351562 2.1875 -14.125 C 1.851562 -13.90625 1.582031 -13.566406 1.375 -13.109375 C 1.164062 -12.660156 1.050781 -12.023438 1.03125 -11.203125 L 0.25 -11.203125 L 0.453125 -15.671875 L 16.390625 -15.671875 Z M 16.59375 -11.203125 "/></g></g></g><g fill="#ffffff" fill-opacity="1"><g transform="translate(137.429675, 37.857985)"><g><path d="M 14.15625 -11.75 C 14.15625 -10.625 13.828125 -9.679688 13.171875 -8.921875 C 12.515625 -8.160156 11.476562 -7.648438 10.0625 -7.390625 L 14.78125 -1.96875 C 15.101562 -1.59375 15.488281 -1.304688 15.9375 -1.109375 C 16.382812 -0.910156 16.84375 -0.8125 17.3125 -0.8125 L 17.3125 0 L 12.484375 0 L 7.4375 -6.1875 C 7.09375 -6.59375 6.796875 -6.867188 6.546875 -7.015625 C 6.296875 -7.160156 6.0625 -7.234375 5.84375 -7.234375 L 5.84375 -3.234375 C 5.84375 -2.734375 5.875 -2.320312 5.9375 -2 C 6.007812 -1.6875 6.144531 -1.441406 6.34375 -1.265625 C 6.550781 -1.085938 6.847656 -0.96875 7.234375 -0.90625 C 7.617188 -0.84375 8.140625 -0.8125 8.796875 -0.8125 L 8.796875 0 L 0.71875 0 L 0.71875 -0.8125 C 1.164062 -0.8125 1.523438 -0.84375 1.796875 -0.90625 C 2.078125 -0.96875 2.296875 -1.082031 2.453125 -1.25 C 2.609375 -1.414062 2.710938 -1.648438 2.765625 -1.953125 C 2.816406 -2.265625 2.84375 -2.660156 2.84375 -3.140625 L 2.84375 -12.546875 C 2.84375 -13.015625 2.820312 -13.394531 2.78125 -13.6875 C 2.75 -13.976562 2.664062 -14.207031 2.53125 -14.375 C 2.394531 -14.550781 2.195312 -14.671875 1.9375 -14.734375 C 1.6875 -14.796875 1.351562 -14.835938 0.9375 -14.859375 L 0.9375 -15.671875 L 7.984375 -15.671875 C 9.953125 -15.671875 11.472656 -15.320312 12.546875 -14.625 C 13.617188 -13.9375 14.15625 -12.976562 14.15625 -11.75 Z M 5.84375 -8.453125 L 7.171875 -8.453125 C 8.441406 -8.453125 9.390625 -8.695312 10.015625 -9.1875 C 10.648438 -9.6875 10.96875 -10.503906 10.96875 -11.640625 C 10.96875 -12.515625 10.703125 -13.210938 10.171875 -13.734375 C 9.648438 -14.265625 8.921875 -14.53125 7.984375 -14.53125 L 6.203125 -14.53125 C 5.960938 -14.53125 5.84375 -14.414062 5.84375 -14.1875 Z M 5.84375 -8.453125 "/></g></g></g><g fill="#ffffff" fill-opacity="1"><g transform="translate(154.013886, 37.857985)"><g><path d="M 10.203125 -4.75 L 4.4375 -4.75 C 3.800781 -3.300781 3.484375 -2.300781 3.484375 -1.75 C 3.484375 -1.34375 3.632812 -1.082031 3.9375 -0.96875 C 4.238281 -0.863281 4.695312 -0.8125 5.3125 -0.8125 L 5.3125 0 L -0.265625 0 L -0.265625 -0.8125 C 0.0546875 -0.851562 0.335938 -0.90625 0.578125 -0.96875 C 0.816406 -1.039062 1.023438 -1.140625 1.203125 -1.265625 C 1.390625 -1.390625 1.550781 -1.546875 1.6875 -1.734375 C 1.820312 -1.929688 1.953125 -2.175781 2.078125 -2.46875 L 7.4375 -15.875 L 8.9375 -15.875 L 13.796875 -3.984375 C 14.085938 -3.296875 14.332031 -2.753906 14.53125 -2.359375 C 14.726562 -1.960938 14.9375 -1.660156 15.15625 -1.453125 C 15.382812 -1.242188 15.644531 -1.097656 15.9375 -1.015625 C 16.226562 -0.929688 16.601562 -0.867188 17.0625 -0.828125 L 17.0625 0 L 9.359375 0 L 9.359375 -0.828125 C 10.015625 -0.859375 10.484375 -0.925781 10.765625 -1.03125 C 11.054688 -1.144531 11.203125 -1.363281 11.203125 -1.6875 C 11.203125 -1.875 11.148438 -2.117188 11.046875 -2.421875 C 10.953125 -2.722656 10.828125 -3.085938 10.671875 -3.515625 Z M 4.90625 -5.96875 L 9.75 -5.96875 L 7.40625 -12.140625 L 7.328125 -12.140625 Z M 4.90625 -5.96875 "/></g></g></g><g fill="#ffffff" fill-opacity="1"><g transform="translate(170.476013, 37.857985)"><g><path d="M 13.640625 0.203125 L 4.625 -12.640625 L 4.546875 -12.640625 L 4.546875 -3.890625 C 4.546875 -3.210938 4.566406 -2.675781 4.609375 -2.28125 C 4.660156 -1.882812 4.765625 -1.578125 4.921875 -1.359375 C 5.078125 -1.140625 5.289062 -0.992188 5.5625 -0.921875 C 5.84375 -0.859375 6.207031 -0.820312 6.65625 -0.8125 L 6.65625 0 L 0.609375 0 L 0.609375 -0.8125 C 1.109375 -0.820312 1.507812 -0.863281 1.8125 -0.9375 C 2.125 -1.019531 2.363281 -1.160156 2.53125 -1.359375 C 2.707031 -1.566406 2.820312 -1.859375 2.875 -2.234375 C 2.925781 -2.609375 2.953125 -3.113281 2.953125 -3.75 L 2.953125 -11.9375 C 2.953125 -12.5 2.925781 -12.96875 2.875 -13.34375 C 2.820312 -13.71875 2.71875 -14.015625 2.5625 -14.234375 C 2.414062 -14.453125 2.203125 -14.601562 1.921875 -14.6875 C 1.640625 -14.78125 1.269531 -14.835938 0.8125 -14.859375 L 0.8125 -15.671875 L 6.5 -15.671875 L 14.703125 -3.90625 L 14.78125 -3.90625 L 14.78125 -11.78125 C 14.78125 -12.445312 14.753906 -12.976562 14.703125 -13.375 C 14.660156 -13.78125 14.5625 -14.09375 14.40625 -14.3125 C 14.25 -14.53125 14.03125 -14.671875 13.75 -14.734375 C 13.46875 -14.804688 13.101562 -14.847656 12.65625 -14.859375 L 12.65625 -15.671875 L 18.703125 -15.671875 L 18.703125 -14.859375 C 18.203125 -14.847656 17.800781 -14.804688 17.5 -14.734375 C 17.195312 -14.660156 16.957031 -14.519531 16.78125 -14.3125 C 16.613281 -14.101562 16.503906 -13.804688 16.453125 -13.421875 C 16.398438 -13.046875 16.375 -12.550781 16.375 -11.9375 L 16.375 0.203125 Z M 13.640625 0.203125 "/></g></g></g><g fill="#ffffff" fill-opacity="1"><g transform="translate(189.603819, 37.857985)"><g><path d="M 1.09375 -5.1875 L 1.890625 -5.1875 C 2.078125 -3.894531 2.59375 -2.878906 3.4375 -2.140625 C 4.28125 -1.398438 5.320312 -1.03125 6.5625 -1.03125 C 7.0625 -1.03125 7.519531 -1.09375 7.9375 -1.21875 C 8.363281 -1.34375 8.722656 -1.515625 9.015625 -1.734375 C 9.316406 -1.960938 9.546875 -2.226562 9.703125 -2.53125 C 9.867188 -2.84375 9.953125 -3.1875 9.953125 -3.5625 C 9.953125 -3.882812 9.898438 -4.164062 9.796875 -4.40625 C 9.703125 -4.644531 9.507812 -4.875 9.21875 -5.09375 C 8.9375 -5.320312 8.546875 -5.550781 8.046875 -5.78125 C 7.554688 -6.007812 6.914062 -6.273438 6.125 -6.578125 C 4.539062 -7.191406 3.367188 -7.898438 2.609375 -8.703125 C 1.847656 -9.515625 1.46875 -10.46875 1.46875 -11.5625 C 1.46875 -12.195312 1.585938 -12.78125 1.828125 -13.3125 C 2.078125 -13.84375 2.421875 -14.296875 2.859375 -14.671875 C 3.296875 -15.054688 3.820312 -15.351562 4.4375 -15.5625 C 5.0625 -15.769531 5.75 -15.875 6.5 -15.875 C 7.1875 -15.875 7.832031 -15.765625 8.4375 -15.546875 C 9.050781 -15.335938 9.660156 -15.015625 10.265625 -14.578125 L 10.625 -15.59375 L 11.109375 -15.59375 L 11.34375 -11.203125 L 10.546875 -11.203125 C 10.222656 -12.304688 9.710938 -13.15625 9.015625 -13.75 C 8.328125 -14.34375 7.523438 -14.640625 6.609375 -14.640625 C 5.773438 -14.640625 5.09375 -14.429688 4.5625 -14.015625 C 4.039062 -13.597656 3.78125 -13.066406 3.78125 -12.421875 C 3.78125 -12.128906 3.828125 -11.867188 3.921875 -11.640625 C 4.023438 -11.421875 4.203125 -11.207031 4.453125 -11 C 4.710938 -10.800781 5.066406 -10.597656 5.515625 -10.390625 C 5.960938 -10.179688 6.539062 -9.945312 7.25 -9.6875 C 8.195312 -9.320312 9.003906 -8.953125 9.671875 -8.578125 C 10.347656 -8.203125 10.898438 -7.800781 11.328125 -7.375 C 11.753906 -6.945312 12.066406 -6.492188 12.265625 -6.015625 C 12.472656 -5.546875 12.578125 -5.023438 12.578125 -4.453125 C 12.578125 -3.765625 12.425781 -3.132812 12.125 -2.5625 C 11.832031 -1.988281 11.414062 -1.5 10.875 -1.09375 C 10.34375 -0.6875 9.707031 -0.367188 8.96875 -0.140625 C 8.226562 0.0859375 7.410156 0.203125 6.515625 0.203125 C 5.703125 0.203125 4.96875 0.09375 4.3125 -0.125 C 3.664062 -0.351562 2.992188 -0.71875 2.296875 -1.21875 L 1.890625 0 L 1.40625 0 Z M 1.09375 -5.1875 "/></g></g></g><g fill="#ffffff" fill-opacity="1"><g transform="translate(203.095025, 37.857985)"><g><path d="M 5.84375 -3.28125 C 5.84375 -2.757812 5.875 -2.335938 5.9375 -2.015625 C 6.007812 -1.703125 6.148438 -1.457031 6.359375 -1.28125 C 6.566406 -1.113281 6.863281 -0.992188 7.25 -0.921875 C 7.644531 -0.859375 8.164062 -0.820312 8.8125 -0.8125 L 8.8125 0 L 0.71875 0 L 0.71875 -0.8125 C 1.164062 -0.820312 1.53125 -0.859375 1.8125 -0.921875 C 2.09375 -0.992188 2.304688 -1.113281 2.453125 -1.28125 C 2.609375 -1.445312 2.710938 -1.675781 2.765625 -1.96875 C 2.816406 -2.269531 2.84375 -2.660156 2.84375 -3.140625 L 2.84375 -12.546875 C 2.84375 -13.015625 2.816406 -13.394531 2.765625 -13.6875 C 2.722656 -13.976562 2.632812 -14.207031 2.5 -14.375 C 2.363281 -14.550781 2.171875 -14.671875 1.921875 -14.734375 C 1.671875 -14.796875 1.34375 -14.835938 0.9375 -14.859375 L 0.9375 -15.671875 L 13.390625 -15.671875 L 13.640625 -11.375 L 12.78125 -11.375 C 12.695312 -11.957031 12.578125 -12.445312 12.421875 -12.84375 C 12.265625 -13.25 12.046875 -13.578125 11.765625 -13.828125 C 11.484375 -14.078125 11.117188 -14.253906 10.671875 -14.359375 C 10.222656 -14.472656 9.671875 -14.53125 9.015625 -14.53125 L 6.203125 -14.53125 C 5.960938 -14.53125 5.84375 -14.414062 5.84375 -14.1875 L 5.84375 -8.3125 C 6.664062 -8.3125 7.335938 -8.34375 7.859375 -8.40625 C 8.390625 -8.476562 8.8125 -8.609375 9.125 -8.796875 C 9.4375 -8.992188 9.660156 -9.265625 9.796875 -9.609375 C 9.929688 -9.953125 10.023438 -10.398438 10.078125 -10.953125 L 10.828125 -10.953125 L 10.828125 -4.578125 L 10.078125 -4.578125 C 9.992188 -5.148438 9.875 -5.609375 9.71875 -5.953125 C 9.570312 -6.296875 9.347656 -6.5625 9.046875 -6.75 C 8.742188 -6.9375 8.332031 -7.0625 7.8125 -7.125 C 7.300781 -7.195312 6.644531 -7.234375 5.84375 -7.234375 Z M 5.84375 -3.28125 "/></g></g></g><g fill="#ffffff" fill-opacity="1"><g transform="translate(217.1153, 37.857985)"><g><path d="M 9.609375 -15.875 C 10.828125 -15.875 11.96875 -15.664062 13.03125 -15.25 C 14.09375 -14.832031 15.007812 -14.253906 15.78125 -13.515625 C 16.5625 -12.785156 17.175781 -11.925781 17.625 -10.9375 C 18.070312 -9.945312 18.296875 -8.875 18.296875 -7.71875 C 18.296875 -6.613281 18.066406 -5.578125 17.609375 -4.609375 C 17.160156 -3.648438 16.546875 -2.8125 15.765625 -2.09375 C 14.984375 -1.382812 14.0625 -0.820312 13 -0.40625 C 11.945312 0 10.816406 0.203125 9.609375 0.203125 C 8.398438 0.203125 7.265625 0 6.203125 -0.40625 C 5.148438 -0.820312 4.226562 -1.382812 3.4375 -2.09375 C 2.65625 -2.8125 2.039062 -3.648438 1.59375 -4.609375 C 1.144531 -5.578125 0.921875 -6.613281 0.921875 -7.71875 C 0.921875 -8.875 1.144531 -9.945312 1.59375 -10.9375 C 2.039062 -11.925781 2.648438 -12.785156 3.421875 -13.515625 C 4.203125 -14.253906 5.125 -14.832031 6.1875 -15.25 C 7.25 -15.664062 8.390625 -15.875 9.609375 -15.875 Z M 9.609375 -1.125 C 10.398438 -1.125 11.113281 -1.273438 11.75 -1.578125 C 12.382812 -1.878906 12.925781 -2.3125 13.375 -2.875 C 13.820312 -3.4375 14.164062 -4.125 14.40625 -4.9375 C 14.644531 -5.75 14.765625 -6.65625 14.765625 -7.65625 C 14.765625 -8.71875 14.644531 -9.671875 14.40625 -10.515625 C 14.164062 -11.359375 13.820312 -12.082031 13.375 -12.6875 C 12.925781 -13.289062 12.382812 -13.753906 11.75 -14.078125 C 11.113281 -14.398438 10.398438 -14.5625 9.609375 -14.5625 C 8.804688 -14.5625 8.085938 -14.398438 7.453125 -14.078125 C 6.828125 -13.753906 6.289062 -13.289062 5.84375 -12.6875 C 5.394531 -12.082031 5.050781 -11.359375 4.8125 -10.515625 C 4.570312 -9.671875 4.453125 -8.71875 4.453125 -7.65625 C 4.453125 -6.65625 4.570312 -5.75 4.8125 -4.9375 C 5.050781 -4.125 5.394531 -3.4375 5.84375 -2.875 C 6.289062 -2.3125 6.828125 -1.878906 7.453125 -1.578125 C 8.085938 -1.273438 8.804688 -1.125 9.609375 -1.125 Z M 9.609375 -1.125 "/></g></g></g><g fill="#ffffff" fill-opacity="1"><g transform="translate(236.304149, 37.857985)"><g><path d="M 14.15625 -11.75 C 14.15625 -10.625 13.828125 -9.679688 13.171875 -8.921875 C 12.515625 -8.160156 11.476562 -7.648438 10.0625 -7.390625 L 14.78125 -1.96875 C 15.101562 -1.59375 15.488281 -1.304688 15.9375 -1.109375 C 16.382812 -0.910156 16.84375 -0.8125 17.3125 -0.8125 L 17.3125 0 L 12.484375 0 L 7.4375 -6.1875 C 7.09375 -6.59375 6.796875 -6.867188 6.546875 -7.015625 C 6.296875 -7.160156 6.0625 -7.234375 5.84375 -7.234375 L 5.84375 -3.234375 C 5.84375 -2.734375 5.875 -2.320312 5.9375 -2 C 6.007812 -1.6875 6.144531 -1.441406 6.34375 -1.265625 C 6.550781 -1.085938 6.847656 -0.96875 7.234375 -0.90625 C 7.617188 -0.84375 8.140625 -0.8125 8.796875 -0.8125 L 8.796875 0 L 0.71875 0 L 0.71875 -0.8125 C 1.164062 -0.8125 1.523438 -0.84375 1.796875 -0.90625 C 2.078125 -0.96875 2.296875 -1.082031 2.453125 -1.25 C 2.609375 -1.414062 2.710938 -1.648438 2.765625 -1.953125 C 2.816406 -2.265625 2.84375 -2.660156 2.84375 -3.140625 L 2.84375 -12.546875 C 2.84375 -13.015625 2.820312 -13.394531 2.78125 -13.6875 C 2.75 -13.976562 2.664062 -14.207031 2.53125 -14.375 C 2.394531 -14.550781 2.195312 -14.671875 1.9375 -14.734375 C 1.6875 -14.796875 1.351562 -14.835938 0.9375 -14.859375 L 0.9375 -15.671875 L 7.984375 -15.671875 C 9.953125 -15.671875 11.472656 -15.320312 12.546875 -14.625 C 13.617188 -13.9375 14.15625 -12.976562 14.15625 -11.75 Z M 5.84375 -8.453125 L 7.171875 -8.453125 C 8.441406 -8.453125 9.390625 -8.695312 10.015625 -9.1875 C 10.648438 -9.6875 10.96875 -10.503906 10.96875 -11.640625 C 10.96875 -12.515625 10.703125 -13.210938 10.171875 -13.734375 C 9.648438 -14.265625 8.921875 -14.53125 7.984375 -14.53125 L 6.203125 -14.53125 C 5.960938 -14.53125 5.84375 -14.414062 5.84375 -14.1875 Z M 5.84375 -8.453125 "/></g></g></g><g fill="#ffffff" fill-opacity="1"><g transform="translate(252.888361, 37.857985)"><g><path d="M 11.828125 -3.8125 L 16.53125 -15.671875 L 22.484375 -15.671875 L 22.484375 -14.859375 C 22.035156 -14.859375 21.671875 -14.8125 21.390625 -14.71875 C 21.109375 -14.632812 20.890625 -14.476562 20.734375 -14.25 C 20.585938 -14.019531 20.488281 -13.703125 20.4375 -13.296875 C 20.394531 -12.898438 20.375 -12.394531 20.375 -11.78125 L 20.375 -3.890625 C 20.375 -3.210938 20.398438 -2.675781 20.453125 -2.28125 C 20.515625 -1.882812 20.625 -1.578125 20.78125 -1.359375 C 20.945312 -1.140625 21.179688 -0.992188 21.484375 -0.921875 C 21.796875 -0.859375 22.203125 -0.820312 22.703125 -0.8125 L 22.703125 0 L 15.046875 0 L 15.046875 -0.8125 C 15.546875 -0.820312 15.945312 -0.863281 16.25 -0.9375 C 16.5625 -1.019531 16.800781 -1.160156 16.96875 -1.359375 C 17.132812 -1.566406 17.242188 -1.859375 17.296875 -2.234375 C 17.359375 -2.609375 17.390625 -3.113281 17.390625 -3.75 L 17.390625 -13.28125 L 17.28125 -13.28125 L 11.8125 0.203125 L 10.296875 0.203125 L 4.640625 -13.28125 L 4.5625 -13.28125 L 4.5625 -3.890625 C 4.5625 -3.210938 4.585938 -2.675781 4.640625 -2.28125 C 4.691406 -1.882812 4.800781 -1.578125 4.96875 -1.359375 C 5.132812 -1.140625 5.367188 -0.992188 5.671875 -0.921875 C 5.972656 -0.859375 6.375 -0.820312 6.875 -0.8125 L 6.875 0 L 0.609375 0 L 0.609375 -0.8125 C 1.109375 -0.820312 1.515625 -0.863281 1.828125 -0.9375 C 2.140625 -1.019531 2.378906 -1.160156 2.546875 -1.359375 C 2.722656 -1.566406 2.835938 -1.859375 2.890625 -2.234375 C 2.941406 -2.609375 2.96875 -3.113281 2.96875 -3.75 L 2.96875 -11.9375 C 2.96875 -12.5 2.941406 -12.96875 2.890625 -13.34375 C 2.835938 -13.726562 2.734375 -14.03125 2.578125 -14.25 C 2.429688 -14.476562 2.21875 -14.632812 1.9375 -14.71875 C 1.664062 -14.8125 1.296875 -14.859375 0.828125 -14.859375 L 0.828125 -15.671875 L 7 -15.671875 L 11.75 -3.8125 Z M 11.828125 -3.8125 "/></g></g></g><g fill="#ffffff" fill-opacity="1"><g transform="translate(276.187664, 37.857985)"><g><path d="M 8 0 L 0.734375 0 L 0.734375 -0.8125 C 1.191406 -0.820312 1.5625 -0.863281 1.84375 -0.9375 C 2.125 -1.019531 2.335938 -1.160156 2.484375 -1.359375 C 2.628906 -1.566406 2.726562 -1.859375 2.78125 -2.234375 C 2.84375 -2.609375 2.875 -3.113281 2.875 -3.75 L 2.875 -11.9375 C 2.875 -12.5 2.847656 -12.96875 2.796875 -13.34375 C 2.753906 -13.71875 2.664062 -14.015625 2.53125 -14.234375 C 2.394531 -14.453125 2.195312 -14.601562 1.9375 -14.6875 C 1.6875 -14.78125 1.351562 -14.835938 0.9375 -14.859375 L 0.9375 -15.671875 L 7.796875 -15.671875 L 7.796875 -14.859375 C 7.378906 -14.835938 7.039062 -14.78125 6.78125 -14.6875 C 6.53125 -14.601562 6.335938 -14.453125 6.203125 -14.234375 C 6.066406 -14.015625 5.972656 -13.71875 5.921875 -13.34375 C 5.878906 -12.96875 5.859375 -12.5 5.859375 -11.9375 L 5.859375 -3.75 C 5.859375 -3.113281 5.878906 -2.609375 5.921875 -2.234375 C 5.972656 -1.859375 6.078125 -1.566406 6.234375 -1.359375 C 6.390625 -1.160156 6.609375 -1.019531 6.890625 -0.9375 C 7.171875 -0.863281 7.539062 -0.820312 8 -0.8125 Z M 8 0 "/></g></g></g><g fill="#ffffff" fill-opacity="1"><g transform="translate(284.917271, 37.857985)"><g><path d="M 5.84375 -3.28125 C 5.84375 -2.757812 5.875 -2.335938 5.9375 -2.015625 C 6.007812 -1.703125 6.148438 -1.457031 6.359375 -1.28125 C 6.566406 -1.113281 6.863281 -0.992188 7.25 -0.921875 C 7.644531 -0.859375 8.164062 -0.820312 8.8125 -0.8125 L 8.8125 0 L 0.71875 0 L 0.71875 -0.8125 C 1.164062 -0.820312 1.53125 -0.859375 1.8125 -0.921875 C 2.09375 -0.992188 2.304688 -1.113281 2.453125 -1.28125 C 2.609375 -1.445312 2.710938 -1.675781 2.765625 -1.96875 C 2.816406 -2.269531 2.84375 -2.660156 2.84375 -3.140625 L 2.84375 -12.546875 C 2.84375 -13.015625 2.816406 -13.394531 2.765625 -13.6875 C 2.722656 -13.976562 2.632812 -14.207031 2.5 -14.375 C 2.363281 -14.550781 2.171875 -14.671875 1.921875 -14.734375 C 1.671875 -14.796875 1.34375 -14.835938 0.9375 -14.859375 L 0.9375 -15.671875 L 13.390625 -15.671875 L 13.640625 -11.375 L 12.78125 -11.375 C 12.695312 -11.957031 12.578125 -12.445312 12.421875 -12.84375 C 12.265625 -13.25 12.046875 -13.578125 11.765625 -13.828125 C 11.484375 -14.078125 11.117188 -14.253906 10.671875 -14.359375 C 10.222656 -14.472656 9.671875 -14.53125 9.015625 -14.53125 L 6.203125 -14.53125 C 5.960938 -14.53125 5.84375 -14.414062 5.84375 -14.1875 L 5.84375 -8.3125 C 6.664062 -8.3125 7.335938 -8.34375 7.859375 -8.40625 C 8.390625 -8.476562 8.8125 -8.609375 9.125 -8.796875 C 9.4375 -8.992188 9.660156 -9.265625 9.796875 -9.609375 C 9.929688 -9.953125 10.023438 -10.398438 10.078125 -10.953125 L 10.828125 -10.953125 L 10.828125 -4.578125 L 10.078125 -4.578125 C 9.992188 -5.148438 9.875 -5.609375 9.71875 -5.953125 C 9.570312 -6.296875 9.347656 -6.5625 9.046875 -6.75 C 8.742188 -6.9375 8.332031 -7.0625 7.8125 -7.125 C 7.300781 -7.195312 6.644531 -7.234375 5.84375 -7.234375 Z M 5.84375 -3.28125 "/></g></g></g><g fill="#ffffff" fill-opacity="1"><g transform="translate(298.937555, 37.857985)"><g><path d="M 2.0625 -13.109375 C 1.851562 -13.460938 1.660156 -13.753906 1.484375 -13.984375 C 1.316406 -14.210938 1.144531 -14.390625 0.96875 -14.515625 C 0.800781 -14.648438 0.613281 -14.738281 0.40625 -14.78125 C 0.207031 -14.832031 -0.0195312 -14.859375 -0.28125 -14.859375 L -0.28125 -15.671875 L 6.5625 -15.671875 L 6.5625 -14.859375 C 5.988281 -14.859375 5.585938 -14.800781 5.359375 -14.6875 C 5.128906 -14.582031 5.015625 -14.421875 5.015625 -14.203125 C 5.015625 -14.066406 5.050781 -13.90625 5.125 -13.71875 C 5.207031 -13.53125 5.335938 -13.273438 5.515625 -12.953125 L 8.421875 -7.390625 L 8.515625 -7.390625 L 11.078125 -11.671875 C 11.523438 -12.429688 11.835938 -12.992188 12.015625 -13.359375 C 12.191406 -13.734375 12.28125 -14.03125 12.28125 -14.25 C 12.28125 -14.476562 12.171875 -14.632812 11.953125 -14.71875 C 11.742188 -14.8125 11.359375 -14.859375 10.796875 -14.859375 L 10.796875 -15.671875 L 15.90625 -15.671875 L 15.90625 -14.859375 C 15.601562 -14.859375 15.328125 -14.8125 15.078125 -14.71875 C 14.835938 -14.625 14.582031 -14.4375 14.3125 -14.15625 C 14.050781 -13.882812 13.753906 -13.5 13.421875 -13 C 13.085938 -12.5 12.691406 -11.851562 12.234375 -11.0625 L 9.265625 -5.96875 L 9.265625 -3.890625 C 9.265625 -3.210938 9.296875 -2.671875 9.359375 -2.265625 C 9.421875 -1.859375 9.53125 -1.546875 9.6875 -1.328125 C 9.84375 -1.117188 10.054688 -0.976562 10.328125 -0.90625 C 10.597656 -0.84375 10.945312 -0.8125 11.375 -0.8125 L 11.375 0 L 4.140625 0 L 4.140625 -0.8125 C 4.554688 -0.8125 4.898438 -0.84375 5.171875 -0.90625 C 5.453125 -0.976562 5.675781 -1.113281 5.84375 -1.3125 C 6.007812 -1.519531 6.117188 -1.816406 6.171875 -2.203125 C 6.234375 -2.597656 6.265625 -3.113281 6.265625 -3.75 L 6.265625 -5.625 Z M 2.0625 -13.109375 "/></g></g></g><g fill="#ebcc1b" fill-opacity="1"><g transform="translate(126.713062, 50.961506)"><g><path d="M 2.515625 -1.40625 L 5.546875 -1.40625 L 6.171875 0 L 7.5 0 L 4.1875 -7.125 L 3.90625 -7.125 L 0.59375 0 L 1.90625 0 Z M 4.03125 -4.828125 L 5.109375 -2.40625 L 2.953125 -2.40625 Z M 4.03125 -4.828125 "/></g></g></g><g fill="#ebcc1b" fill-opacity="1"><g transform="translate(136.047202, 50.961506)"><g><path d="M 1.46875 0 L 2.71875 0 L 2.71875 -7.0625 L 1.46875 -7.0625 Z M 1.46875 0 "/></g></g></g><g fill="#ebcc1b" fill-opacity="1"><g transform="translate(141.467422, 50.961506)"><g/></g></g><g fill="#ebcc1b" fill-opacity="1"><g transform="translate(146.927784, 50.961506)"><g><path d="M 5.78125 -1.90625 C 5.78125 -2.828125 5.328125 -3.453125 3.75 -4.0625 C 2.765625 -4.4375 2.375 -4.71875 2.375 -5.171875 C 2.375 -5.65625 2.71875 -6.0625 3.46875 -6.0625 C 4.015625 -6.0625 4.625 -5.828125 5.046875 -5.59375 L 5.453125 -6.703125 C 5 -6.96875 4.25 -7.1875 3.5 -7.1875 C 1.984375 -7.1875 1.125 -6.203125 1.125 -5.140625 C 1.125 -4.296875 1.59375 -3.640625 2.96875 -3.140625 C 4.25 -2.65625 4.515625 -2.375 4.515625 -1.90625 C 4.515625 -1.453125 4.125 -1.046875 3.296875 -1.046875 C 2.65625 -1.046875 1.953125 -1.28125 1.375 -1.671875 L 0.9375 -0.546875 C 1.59375 -0.15625 2.421875 0.125 3.25 0.125 C 4.828125 0.125 5.78125 -0.65625 5.78125 -1.90625 Z M 5.78125 -1.90625 "/></g></g></g><g fill="#ebcc1b" fill-opacity="1"><g transform="translate(154.887027, 50.961506)"><g><path d="M 2.515625 -1.40625 L 5.546875 -1.40625 L 6.171875 0 L 7.5 0 L 4.1875 -7.125 L 3.90625 -7.125 L 0.59375 0 L 1.90625 0 Z M 4.03125 -4.828125 L 5.109375 -2.40625 L 2.953125 -2.40625 Z M 4.03125 -4.828125 "/></g></g></g><g fill="#ebcc1b" fill-opacity="1"><g transform="translate(164.221167, 50.961506)"><g><path d="M 2.515625 -1.40625 L 5.546875 -1.40625 L 6.171875 0 L 7.5 0 L 4.1875 -7.125 L 3.90625 -7.125 L 0.59375 0 L 1.90625 0 Z M 4.03125 -4.828125 L 5.109375 -2.40625 L 2.953125 -2.40625 Z M 4.03125 -4.828125 "/></g></g></g><g fill="#ebcc1b" fill-opacity="1"><g transform="translate(173.555309, 50.961506)"><g><path d="M 5.78125 -1.90625 C 5.78125 -2.828125 5.328125 -3.453125 3.75 -4.0625 C 2.765625 -4.4375 2.375 -4.71875 2.375 -5.171875 C 2.375 -5.65625 2.71875 -6.0625 3.46875 -6.0625 C 4.015625 -6.0625 4.625 -5.828125 5.046875 -5.59375 L 5.453125 -6.703125 C 5 -6.96875 4.25 -7.1875 3.5 -7.1875 C 1.984375 -7.1875 1.125 -6.203125 1.125 -5.140625 C 1.125 -4.296875 1.59375 -3.640625 2.96875 -3.140625 C 4.25 -2.65625 4.515625 -2.375 4.515625 -1.90625 C 4.515625 -1.453125 4.125 -1.046875 3.296875 -1.046875 C 2.65625 -1.046875 1.953125 -1.28125 1.375 -1.671875 L 0.9375 -0.546875 C 1.59375 -0.15625 2.421875 0.125 3.25 0.125 C 4.828125 0.125 5.78125 -0.65625 5.78125 -1.90625 Z M 5.78125 -1.90625 "/></g></g></g><g fill="#ebcc1b" fill-opacity="1"><g transform="translate(181.514553, 50.961506)"><g/></g></g><g fill="#d9d9d9" fill-opacity="1"><g transform="translate(186.982388, 50.961506)"><g><path d="M 1.46875 0 L 3.734375 0 C 5.328125 0 6.546875 -0.75 6.546875 -2 C 6.546875 -2.75 6.09375 -3.328125 5.125 -3.609375 C 5.921875 -3.890625 6.359375 -4.4375 6.359375 -5.1875 C 6.359375 -6.3125 5.546875 -7.0625 3.734375 -7.0625 L 1.46875 -7.0625 Z M 3.484375 -3.109375 C 4.796875 -3.109375 5.203125 -2.609375 5.203125 -2.125 C 5.203125 -1.609375 4.84375 -1.140625 3.78125 -1.140625 L 2.71875 -1.140625 L 2.71875 -3.109375 Z M 3.78125 -5.921875 C 4.703125 -5.921875 5.0625 -5.53125 5.0625 -5.046875 C 5.0625 -4.515625 4.625 -3.984375 3.609375 -4 L 2.71875 -4 L 2.71875 -5.921875 Z M 3.78125 -5.921875 "/></g></g></g><g fill="#d9d9d9" fill-opacity="1"><g transform="translate(195.834817, 50.961506)"><g><path d="M 0.96875 -5.46875 C 0.96875 -3.5625 1.8125 -2.5625 3.28125 -2.359375 L 3.28125 0 L 4.515625 0 L 4.515625 -2.359375 C 5.984375 -2.578125 6.859375 -3.5625 6.859375 -5.46875 L 6.859375 -7.0625 L 5.609375 -7.0625 L 5.609375 -5.484375 C 5.609375 -3.984375 4.90625 -3.46875 3.921875 -3.46875 C 2.9375 -3.46875 2.234375 -4.046875 2.234375 -5.46875 L 2.234375 -7.0625 L 0.96875 -7.0625 Z M 0.96875 -5.46875 "/></g></g></g><g fill="#d9d9d9" fill-opacity="1"><g transform="translate(204.887951, 50.961506)"><g/></g></g><g fill="#d9d9d9" fill-opacity="1"><g transform="translate(210.348313, 50.961506)"><g><path d="M 3.390625 -2.046875 C 5.515625 -2.046875 6.453125 -3.078125 6.453125 -4.546875 C 6.453125 -6.03125 5.5 -7.0625 3.625 -7.0625 L 1.46875 -7.0625 L 1.46875 0 L 2.71875 0 L 2.71875 -2.046875 Z M 3.53125 -5.921875 C 4.71875 -5.921875 5.109375 -5.328125 5.109375 -4.546875 C 5.109375 -3.78125 4.703125 -3.15625 3.53125 -3.15625 L 2.71875 -3.15625 L 2.71875 -5.921875 Z M 3.53125 -5.921875 "/></g></g></g><g fill="#d9d9d9" fill-opacity="1"><g transform="translate(218.879594, 50.961506)"><g><path d="M 1.46875 0 L 2.71875 0 L 2.71875 -2.046875 L 3.484375 -2.046875 C 3.703125 -2.046875 3.921875 -2.0625 4.125 -2.078125 L 5.609375 0 L 7.078125 0 L 5.265625 -2.390625 C 6.15625 -2.796875 6.546875 -3.578125 6.546875 -4.546875 C 6.546875 -6.03125 5.609375 -7.0625 3.734375 -7.0625 L 1.46875 -7.0625 Z M 3.640625 -5.921875 C 4.8125 -5.921875 5.203125 -5.328125 5.203125 -4.546875 C 5.203125 -3.78125 4.796875 -3.15625 3.640625 -3.15625 L 2.71875 -3.15625 L 2.71875 -5.921875 Z M 3.640625 -5.921875 "/></g></g></g><g fill="#d9d9d9" fill-opacity="1"><g transform="translate(227.942775, 50.961506)"><g><path d="M 2.515625 -1.40625 L 5.546875 -1.40625 L 6.171875 0 L 7.5 0 L 4.1875 -7.125 L 3.90625 -7.125 L 0.59375 0 L 1.90625 0 Z M 4.03125 -4.828125 L 5.109375 -2.40625 L 2.953125 -2.40625 Z M 4.03125 -4.828125 "/></g></g></g><g fill="#d9d9d9" fill-opacity="1"><g transform="translate(237.276915, 50.961506)"><g><path d="M 1.46875 0 L 3.734375 0 C 5.328125 0 6.546875 -0.75 6.546875 -2 C 6.546875 -2.75 6.09375 -3.328125 5.125 -3.609375 C 5.921875 -3.890625 6.359375 -4.4375 6.359375 -5.1875 C 6.359375 -6.3125 5.546875 -7.0625 3.734375 -7.0625 L 1.46875 -7.0625 Z M 3.484375 -3.109375 C 4.796875 -3.109375 5.203125 -2.609375 5.203125 -2.125 C 5.203125 -1.609375 4.84375 -1.140625 3.78125 -1.140625 L 2.71875 -1.140625 L 2.71875 -3.109375 Z M 3.78125 -5.921875 C 4.703125 -5.921875 5.0625 -5.53125 5.0625 -5.046875 C 5.0625 -4.515625 4.625 -3.984375 3.609375 -4 L 2.71875 -4 L 2.71875 -5.921875 Z M 3.78125 -5.921875 "/></g></g></g><g fill="#d9d9d9" fill-opacity="1"><g transform="translate(246.129343, 50.961506)"><g><path d="M 6.15625 0 L 7.40625 0 L 7.40625 -7.046875 L 6.15625 -7.046875 L 6.15625 -3.890625 L 2.71875 -3.890625 L 2.71875 -7.0625 L 1.46875 -7.0625 L 1.46875 0 L 2.71875 0 L 2.71875 -2.78125 L 6.15625 -2.78125 Z M 6.15625 0 "/></g></g></g><g fill="#d9d9d9" fill-opacity="1"><g transform="translate(256.236227, 50.961506)"><g><path d="M 2.515625 -1.40625 L 5.546875 -1.40625 L 6.171875 0 L 7.5 0 L 4.1875 -7.125 L 3.90625 -7.125 L 0.59375 0 L 1.90625 0 Z M 4.03125 -4.828125 L 5.109375 -2.40625 L 2.953125 -2.40625 Z M 4.03125 -4.828125 "/></g></g></g><g fill="#d9d9d9" fill-opacity="1"><g transform="translate(265.570366, 50.961506)"><g><path d="M 0.578125 -5.921875 L 2.9375 -5.921875 L 2.9375 0 L 4.1875 0 L 4.1875 -5.921875 L 6.515625 -5.921875 L 6.515625 -7.0625 L 0.578125 -7.0625 Z M 0.578125 -5.921875 "/></g></g></g></svg>